<mxfile host="app.diagrams.net" modified="2024-01-12T17:02:47.712Z" agent="Mozilla/5.0 (Windows NT 10.0; Win64; x64) AppleWebKit/537.36 (KHTML, like Gecko) Chrome/118.0.0.0 YaBrowser/23.11.0.0 Safari/537.36" etag="YFw9k3t5XRxLmCETaYTB" version="22.1.18" type="device">
  <diagram name="Страница — 1" id="-mRN5QdlYQXHq4_ybOhs">
    <mxGraphModel dx="2728" dy="879" grid="1" gridSize="10" guides="1" tooltips="1" connect="1" arrows="1" fold="1" page="1" pageScale="1" pageWidth="827" pageHeight="1169" math="0" shadow="0">
      <root>
        <mxCell id="0" />
        <mxCell id="1" parent="0" />
        <mxCell id="p59-0w7sQKgt09nuZ_Dw-2" value="" style="shape=folder;fontStyle=1;spacingTop=10;tabWidth=90;tabHeight=40;tabPosition=left;html=1;whiteSpace=wrap;" parent="1" vertex="1">
          <mxGeometry x="-185" y="500" width="190" height="110" as="geometry" />
        </mxCell>
        <mxCell id="p59-0w7sQKgt09nuZ_Dw-6" value="User authentification" style="text;html=1;strokeColor=none;fillColor=none;align=center;verticalAlign=middle;whiteSpace=wrap;rounded=0;" parent="1" vertex="1">
          <mxGeometry x="-185" y="510" width="90" height="20" as="geometry" />
        </mxCell>
        <mxCell id="p59-0w7sQKgt09nuZ_Dw-8" value="Login" style="rounded=0;whiteSpace=wrap;html=1;" parent="1" vertex="1">
          <mxGeometry x="-135" y="545" width="90" height="20" as="geometry" />
        </mxCell>
        <mxCell id="p59-0w7sQKgt09nuZ_Dw-9" value="Password" style="rounded=0;whiteSpace=wrap;html=1;" parent="1" vertex="1">
          <mxGeometry x="-145" y="580" width="110" height="20" as="geometry" />
        </mxCell>
        <mxCell id="p59-0w7sQKgt09nuZ_Dw-11" value="" style="html=1;verticalAlign=bottom;endArrow=open;dashed=1;endSize=8;curved=0;rounded=0;exitX=0.5;exitY=1;exitDx=0;exitDy=0;exitPerimeter=0;entryX=0.502;entryY=0.098;entryDx=0;entryDy=0;entryPerimeter=0;" parent="1" source="p59-0w7sQKgt09nuZ_Dw-2" target="p59-0w7sQKgt09nuZ_Dw-12" edge="1">
          <mxGeometry x="1" y="-277" relative="1" as="geometry">
            <mxPoint x="-370" y="730" as="sourcePoint" />
            <mxPoint x="-315" y="730" as="targetPoint" />
            <mxPoint x="-210" y="97" as="offset" />
          </mxGeometry>
        </mxCell>
        <mxCell id="p59-0w7sQKgt09nuZ_Dw-12" value="" style="shape=folder;fontStyle=1;spacingTop=10;tabWidth=60;tabHeight=30;tabPosition=left;html=1;whiteSpace=wrap;" parent="1" vertex="1">
          <mxGeometry x="-460" y="720" width="740" height="290" as="geometry" />
        </mxCell>
        <mxCell id="p59-0w7sQKgt09nuZ_Dw-13" value="UI" style="text;html=1;strokeColor=none;fillColor=none;align=center;verticalAlign=middle;whiteSpace=wrap;rounded=0;" parent="1" vertex="1">
          <mxGeometry x="-470" y="720" width="60" height="30" as="geometry" />
        </mxCell>
        <mxCell id="p59-0w7sQKgt09nuZ_Dw-14" value="Вывод списка всех служащих&lt;br&gt;Вывод списка офицерского состава&lt;br&gt;Вывод списка обладателей золотого значка ГТО&lt;br&gt;Вывод кол-ва вооружения в определенной части&lt;br&gt;Вывод кол-ва должностей&amp;nbsp;" style="shape=folder;fontStyle=1;spacingTop=10;tabWidth=60;tabHeight=30;tabPosition=left;html=1;whiteSpace=wrap;align=left;" parent="1" vertex="1">
          <mxGeometry x="-440" y="780" width="310" height="130" as="geometry" />
        </mxCell>
        <mxCell id="p59-0w7sQKgt09nuZ_Dw-15" value="" style="shape=folder;fontStyle=1;spacingTop=10;tabWidth=60;tabHeight=30;tabPosition=left;html=1;whiteSpace=wrap;" parent="1" vertex="1">
          <mxGeometry x="-195" y="1109" width="160" height="110" as="geometry" />
        </mxCell>
        <mxCell id="p59-0w7sQKgt09nuZ_Dw-16" value="Server" style="text;html=1;strokeColor=none;fillColor=none;align=center;verticalAlign=middle;whiteSpace=wrap;rounded=0;" parent="1" vertex="1">
          <mxGeometry x="-200" y="1109" width="60" height="30" as="geometry" />
        </mxCell>
        <mxCell id="p59-0w7sQKgt09nuZ_Dw-17" value="Data base" style="rounded=0;whiteSpace=wrap;html=1;" parent="1" vertex="1">
          <mxGeometry x="-160" y="1159" width="90" height="40" as="geometry" />
        </mxCell>
        <mxCell id="p59-0w7sQKgt09nuZ_Dw-18" value="Main UI for military" style="text;html=1;strokeColor=none;fillColor=none;align=center;verticalAlign=middle;whiteSpace=wrap;rounded=0;" parent="1" vertex="1">
          <mxGeometry x="-440" y="780" width="60" height="30" as="geometry" />
        </mxCell>
        <mxCell id="p59-0w7sQKgt09nuZ_Dw-20" value="Вывод списка всех служащих&lt;br&gt;Вывод списка офицерского состава&lt;br&gt;Вывод списка обладателей золотого значка ГТО&lt;br&gt;Вывод кол-ва вооружения в определенной части&lt;br&gt;Вывод кол-ва должностей&amp;nbsp;&lt;br&gt;Редактирование таблицы служащих&lt;br&gt;Редактирование таблицы вооружения" style="shape=folder;fontStyle=1;spacingTop=10;tabWidth=60;tabHeight=30;tabPosition=left;html=1;whiteSpace=wrap;align=left;" parent="1" vertex="1">
          <mxGeometry x="-100" y="780" width="310" height="160" as="geometry" />
        </mxCell>
        <mxCell id="p59-0w7sQKgt09nuZ_Dw-21" value="Main UI for admin" style="text;html=1;strokeColor=none;fillColor=none;align=center;verticalAlign=middle;whiteSpace=wrap;rounded=0;" parent="1" vertex="1">
          <mxGeometry x="-100" y="780" width="60" height="30" as="geometry" />
        </mxCell>
        <mxCell id="p59-0w7sQKgt09nuZ_Dw-22" value="" style="html=1;verticalAlign=bottom;endArrow=open;dashed=1;endSize=8;curved=0;rounded=0;exitX=0.321;exitY=1.007;exitDx=0;exitDy=0;exitPerimeter=0;entryX=0.749;entryY=0.22;entryDx=0;entryDy=0;entryPerimeter=0;" parent="1" edge="1">
          <mxGeometry x="0.8932" y="410" relative="1" as="geometry">
            <mxPoint x="-91.15000000000003" y="1010" as="sourcePoint" />
            <mxPoint x="-88.8500000000003" y="1142.17" as="targetPoint" />
            <mxPoint as="offset" />
          </mxGeometry>
        </mxCell>
      </root>
    </mxGraphModel>
  </diagram>
</mxfile>
